<?xml version="1.0" encoding="UTF-8" standalone="no"?>
<!-- Created with Inkscape (http://www.inkscape.org/) -->

<svg
   xmlns:dc="http://purl.org/dc/elements/1.1/"
   xmlns:cc="http://creativecommons.org/ns#"
   xmlns:rdf="http://www.w3.org/1999/02/22-rdf-syntax-ns#"
   xmlns:svg="http://www.w3.org/2000/svg"
   xmlns="http://www.w3.org/2000/svg"
   xmlns:sodipodi="http://sodipodi.sourceforge.net/DTD/sodipodi-0.dtd"
   xmlns:inkscape="http://www.inkscape.org/namespaces/inkscape"
   width="210mm"
   height="297mm"
   viewBox="0 0 210 297"
   version="1.1"
   id="svg3040"
   inkscape:version="0.92.2 (5c3e80d, 2017-08-06)"
   sodipodi:docname="grass.svg">
  <defs
     id="defs3034" />
  <sodipodi:namedview
     id="base"
     pagecolor="#ffffff"
     bordercolor="#666666"
     borderopacity="1.0"
     inkscape:pageopacity="0.0"
     inkscape:pageshadow="2"
     inkscape:zoom="1.979899"
     inkscape:cx="238.79446"
     inkscape:cy="862.2767"
     inkscape:document-units="mm"
     inkscape:current-layer="layer1"
     showgrid="false"
     inkscape:window-width="1920"
     inkscape:window-height="1017"
     inkscape:window-x="-8"
     inkscape:window-y="-8"
     inkscape:window-maximized="1" />
  <metadata
     id="metadata3037">
    <rdf:RDF>
      <cc:Work
         rdf:about="">
        <dc:format>image/svg+xml</dc:format>
        <dc:type
           rdf:resource="http://purl.org/dc/dcmitype/StillImage" />
        <dc:title></dc:title>
      </cc:Work>
    </rdf:RDF>
  </metadata>
  <g
     inkscape:label="Layer 1"
     inkscape:groupmode="layer"
     id="layer1">
    <rect
       style="opacity:1;fill:#82d140;fill-opacity:1;stroke-width:0.26458332"
       id="rect3585"
       width="52.916668"
       height="52.916668"
       x="48.380955"
       y="46.023808"
       inkscape:export-filename="C:\Users\Simon\git\bug-catcher\web\assets\textures\grass.png"
       inkscape:export-xdpi="101.6"
       inkscape:export-ydpi="101.6" />
    <path
       style="opacity:1;fill:#095f00;fill-opacity:1;stroke-width:0.26458332"
       id="path3605"
       d="m 59.579311,84.081159 c -0.257043,-0.883746 -0.565626,-1.752746 -0.80109,-2.642802 -0.105005,-0.396917 -0.208613,-0.882869 -0.298368,-1.289383 -0.0379,-0.239038 -0.105984,-0.485111 -0.09333,-0.730467 -0.09388,-0.475329 0.578339,-0.608089 0.672216,-0.132763 v 0 c 0.09443,0.226047 0.115822,0.472128 0.202044,0.70207 0.357846,1.306269 0.751689,2.605984 1.026057,3.932412 0.113794,0.500295 -0.593731,0.661228 -0.707525,0.160933 z"
       inkscape:connector-curvature="0" />
    <path
       style="opacity:1;fill:#095f00;fill-opacity:1;stroke-width:0.26458332"
       id="path3607"
       d="m 61.324928,83.669052 c 0.37342,-1.264465 0.996903,-2.428764 1.591702,-3.598262 0.197411,-0.516665 0.928084,-0.237482 0.730671,0.279183 v 0 c -0.499425,1.183555 -1.113999,2.314173 -1.623108,3.493778 -0.123534,0.494453 -0.822796,0.319754 -0.699265,-0.174699 z"
       inkscape:connector-curvature="0" />
    <path
       style="opacity:1;fill:#095f00;fill-opacity:1;stroke-width:0.26458332"
       id="path3609"
       d="m 63.654302,84.313918 c -0.01966,-0.468614 -0.05948,-0.936101 -0.09434,-1.403744 -0.0308,-0.55517 0.754333,-0.598729 0.78513,-0.04356 v 0 c 0.02783,0.48146 0.0676,0.965345 0.0227,1.4473 0,0.504521 -0.713499,0.504521 -0.713499,0 z"
       inkscape:connector-curvature="0" />
    <path
       style="opacity:1;fill:#095f00;fill-opacity:1;stroke-width:0.26458332"
       id="path3611"
       d="m 67.305287,84.810795 c 0.650401,-1.027557 1.305224,-2.055852 2.053124,-3.016054 0.299112,-0.317265 0.537903,-0.581478 1.035288,-0.3336 0.197641,0.0985 0.381117,0.824291 0.438224,1.01355 0.190178,0.498067 0.503979,0.930005 0.839994,1.338543 0.28574,0.422679 -0.312023,0.826775 -0.597762,0.404092 v 0 c -0.413068,-0.467534 -0.782161,-0.972351 -0.97594,-1.573736 -0.02949,-0.118859 -0.05687,-0.238263 -0.08846,-0.356579 -0.0445,-0.166656 -0.09952,-0.281763 -0.06195,-0.293338 0.110035,-0.0339 0.226772,-0.04181 0.341429,-0.05234 0.02724,-0.0024 -0.0514,0.01871 -0.07711,0.02807 -0.06206,0.07334 -0.124108,0.14668 -0.186163,0.220019 -0.689732,0.99096 -1.325139,2.024005 -2.084398,2.963963 -0.242253,0.449916 -0.878531,0.107321 -0.636278,-0.342595 z"
       inkscape:connector-curvature="0" />
    <path
       style="opacity:1;fill:#095f00;fill-opacity:1;stroke-width:0.26458332"
       id="path3613"
       d="m 67.52719,80.148262 c -0.01995,-0.441677 -0.02482,-0.882949 -0.0518,-1.324377 -0.01654,-0.270385 -0.01807,-0.533344 -0.103886,-0.793467 -0.03026,-0.0917 -0.08527,-0.173275 -0.127911,-0.259913 -0.172389,-0.238011 -0.07487,-0.153705 -0.268332,-0.278498 -0.347559,-0.371279 0.177514,-0.862804 0.525073,-0.491522 v 0 c 0.32778,0.289103 0.17842,0.123209 0.441132,0.503846 0.05803,0.130675 0.129691,0.256109 0.174072,0.392023 0.231484,0.708943 0.13928,1.519973 0.130191,2.251908 0,0.508082 -0.718537,0.508082 -0.718537,0 z"
       inkscape:connector-curvature="0" />
    <path
       style="opacity:1;fill:#095f00;fill-opacity:1;stroke-width:0.26458332"
       id="path3615"
       d="m 80.852207,56.045094 c 0.266944,-0.591521 0.576184,-1.174348 0.934794,-1.716646 0.239009,-0.451265 0.877192,-0.113255 0.638183,0.338008 v 0 c -0.33443,0.51689 -0.577654,1.09297 -0.90692,1.614329 -0.166658,0.470974 -0.832715,0.235283 -0.666057,-0.235691 z"
       inkscape:connector-curvature="0" />
    <path
       style="opacity:1;fill:#095f00;fill-opacity:1;stroke-width:0.26458332"
       id="path3617"
       d="m 79.671787,60.185955 c -0.123801,-0.776856 -0.250147,-1.558149 -0.462594,-2.316572 -0.04887,-0.09505 -0.07473,-0.222488 -0.174673,-0.277765 -0.309205,-0.380638 0.229103,-0.81792 0.538305,-0.43728 v 0 c 0.148712,0.160608 0.270002,0.323242 0.345551,0.533496 0.259967,0.783291 0.435724,1.596739 0.458325,2.424218 0.05226,0.498451 -0.652656,0.572355 -0.704914,0.0739 z"
       inkscape:connector-curvature="0" />
    <path
       style="opacity:1;fill:#095f00;fill-opacity:1;stroke-width:0.26458332"
       id="path3619"
       d="m 81.56136,58.388773 c -0.01606,-0.652764 -0.07687,-1.340744 0.112101,-1.977313 0.02909,-0.09799 0.07626,-0.189675 0.114382,-0.284512 0.161457,-0.484648 0.846852,-0.256312 0.685395,0.228336 v 0 c -0.257178,0.636891 -0.129037,1.364578 -0.198379,2.033489 0,0.504524 -0.713499,0.504524 -0.713499,0 z"
       inkscape:connector-curvature="0" />
    <path
       style="opacity:1;fill:#095f00;fill-opacity:1;stroke-width:0.26458332"
       id="path3621"
       d="m 83.033858,60.683544 c -0.04304,-0.725972 -0.03589,-1.454486 -0.0049,-2.18082 0,-0.50796 0.718367,-0.50796 0.718367,0 v 0 c 0.03094,0.726334 0.03809,1.454848 -0.0049,2.18082 0,0.500959 -0.708467,0.500959 -0.708467,0 z"
       inkscape:connector-curvature="0" />
    <path
       style="opacity:1;fill:#095f00;fill-opacity:1;stroke-width:0.26458332"
       id="path3623"
       d="m 77.822104,54.536345 c -0.08306,-0.444736 0.01421,-1.092719 -0.453977,-1.358982 -0.06816,-0.03876 -0.150527,-0.04397 -0.225791,-0.06596 -0.255145,-0.03254 -0.484036,0.04801 -0.721476,0.139496 -0.419296,0.28997 -0.829374,-0.303006 -0.410078,-0.592976 v 0 c 0.538216,-0.264742 0.970976,-0.341429 1.567193,-0.147955 0.128961,0.07593 0.271505,0.132474 0.386885,0.227785 0.535972,0.442754 0.55381,1.164101 0.565708,1.798593 0,0.500959 -0.708464,0.500959 -0.708464,-1e-6 z"
       inkscape:connector-curvature="0" />
    <path
       style="opacity:1;fill:#095f00;fill-opacity:1;stroke-width:0.26458332"
       id="path3625"
       d="m 83.325882,92.718934 c 0.109611,-0.67454 0.195246,-1.327555 0.522075,-1.936359 0.206852,-0.465949 0.865804,-0.173421 0.658953,0.292529 v 0 c -0.291184,0.527402 -0.296518,1.150408 -0.476112,1.717733 -0.05226,0.498451 -0.757174,0.424548 -0.704916,-0.0739 z"
       inkscape:connector-curvature="0" />
    <path
       style="opacity:1;fill:#095f00;fill-opacity:1;stroke-width:0.26458332"
       id="path3627"
       d="M 86.133598,91.981596 C 85.872734,91.437583 85.636229,90.88298 85.404221,90.32627 85.217568,89.787533 85.979457,89.523564 86.166112,90.0623 v 0 c 0.233947,0.554488 0.477581,1.106464 0.66116,1.680435 0.168899,0.490501 -0.524775,0.729361 -0.693674,0.238861 z"
       inkscape:connector-curvature="0" />
    <path
       style="opacity:1;fill:#095f00;fill-opacity:1;stroke-width:0.26458332"
       id="path3629"
       d="m 91.7176,73.355868 c -0.05625,-0.941189 -0.05412,-1.884973 -0.04011,-2.827363 0,-0.56125 0.793729,-0.56125 0.793729,0 v 0 c 0.014,0.94239 0.01614,1.886174 -0.04011,2.827363 0,0.504521 -0.713502,0.504521 -0.713502,0 z"
       inkscape:connector-curvature="0" />
    <path
       style="opacity:1;fill:#095f00;fill-opacity:1;stroke-width:1.00240695"
       d="M 276.42383 190.9668 C 275.77202 190.99087 275.13527 191.42471 275.00586 192.33789 C 274.45705 195.83523 273.95093 199.34315 273.66406 202.87305 C 273.39816 204.74933 276.05247 205.1263 276.31836 203.25 C 277.02359 199.77939 277.51241 196.26796 277.95703 192.75586 C 278.12342 191.58177 277.26187 190.93585 276.42383 190.9668 z M 300.12109 196.8125 C 299.28464 196.78608 298.42927 197.43666 298.60156 198.60742 C 299.06393 202.10986 299.57071 205.61068 300.29297 209.07031 C 300.56831 210.94129 303.21479 210.55067 302.93945 208.67969 C 302.63442 205.15865 302.11112 201.66098 301.54492 198.17383 C 301.41092 197.26324 300.77167 196.83305 300.12109 196.8125 z M 270.63086 197.2793 C 269.79189 197.29067 268.96393 197.97972 269.18945 199.14453 C 269.81096 202.63156 270.47755 206.11446 271.35742 209.54688 C 271.71783 211.40829 274.35065 210.89858 273.99023 209.03711 C 273.52543 205.52433 272.84204 202.04515 272.11719 198.57812 C 271.94178 197.67222 271.28339 197.27045 270.63086 197.2793 z M 296.56641 231.36133 C 295.90662 231.37814 295.25674 231.80995 295.11523 232.73242 C 294.51954 236.26472 293.96777 239.80868 293.63672 243.37695 C 293.34597 245.27233 296.02565 245.68444 296.31641 243.78906 C 297.0701 240.28562 297.60521 236.73789 298.0957 233.18945 C 298.27764 232.00342 297.4147 231.33971 296.56641 231.36133 z M 313.4707 249.77344 C 312.72116 249.82875 312.01163 250.4146 312.08984 251.47461 C 312.29962 255.03823 312.55446 258.60308 313.0293 262.14258 C 313.16994 264.04834 315.86525 263.8491 315.72461 261.94336 C 315.67472 258.3725 315.40348 254.80972 315.08789 251.25391 C 315.00966 250.19389 314.22024 249.71812 313.4707 249.77344 z M 275.09961 273.75 C 274.35109 273.79201 273.63199 274.36331 273.69141 275.42188 C 273.83811 278.9796 274.02994 282.5398 274.44141 286.07812 C 274.54823 287.98126 277.23962 287.83087 277.13281 285.92773 C 277.14568 282.36551 276.93787 278.80579 276.68555 275.25391 C 276.62613 274.19534 275.84813 273.70799 275.09961 273.75 z M 245.45703 274.72266 C 244.70538 274.70842 243.94397 275.22607 243.92383 276.28906 C 243.80315 279.85778 243.72554 283.43274 243.87109 287.00195 C 243.83489 288.91306 246.53794 288.96383 246.57422 287.05273 C 246.85485 283.4916 246.91495 279.91643 246.92969 276.3457 C 246.94983 275.28271 246.20868 274.7369 245.45703 274.72266 z M 280.46484 281.67969 C 279.81011 281.66951 279.14851 282.06982 278.9707 282.97852 C 278.23644 286.45585 277.54565 289.94693 277.07227 293.4707 C 276.70693 295.33777 279.34756 295.85536 279.71289 293.98828 C 280.6026 290.54597 281.27761 287.05036 281.9082 283.55273 C 282.13681 282.38442 281.30664 281.69277 280.46484 281.67969 z M 311.30078 305.14258 C 310.45077 305.14392 309.60404 305.83303 309.81836 307.01562 C 310.40559 310.55553 311.03707 314.09237 311.88672 317.58008 C 312.22922 319.47013 314.90305 318.98575 314.56055 317.0957 C 314.13233 313.53162 313.4832 309.99745 312.79102 306.47656 C 312.62433 305.55669 311.9619 305.14154 311.30078 305.14258 z M 219.97852 306.64844 C 219.32081 306.66919 218.67457 307.10288 218.53906 308.02344 C 217.96646 311.54873 217.43938 315.08496 217.13086 318.64453 C 216.85243 320.53598 219.52625 320.93052 219.80469 319.03906 C 220.53495 315.54158 221.04817 312.0017 221.51562 308.46094 C 221.68985 307.27737 220.82413 306.62176 219.97852 306.64844 z M 304.47266 307.58203 C 303.82164 307.61118 303.18855 308.04954 303.06641 308.96289 C 302.5455 312.4613 302.06757 315.96916 301.80859 319.49805 C 301.55761 321.3747 304.21193 321.73017 304.46289 319.85352 C 305.14035 316.38059 305.60085 312.86977 306.01758 309.35742 C 306.17462 308.18311 305.30968 307.54456 304.47266 307.58203 z M 255.98242 324.20117 C 255.32607 324.25161 254.69931 324.71467 254.60547 325.64062 C 254.19246 329.18955 253.82529 332.74907 253.67773 336.32031 C 253.48491 338.22314 256.17436 338.49658 256.36719 336.59375 C 256.93906 333.0655 257.29222 329.50494 257.59961 325.94531 C 257.72027 324.75463 256.8263 324.13632 255.98242 324.20117 z M 291.89258 325.37305 C 291.234 325.4306 290.61184 325.90301 290.52734 326.83398 C 290.14993 330.40218 289.8157 333.97859 289.70508 337.56641 C 289.53146 339.47929 292.23652 339.72536 292.41016 337.8125 C 292.94732 334.2634 293.26394 330.68525 293.53516 327.10742 C 293.6438 325.91045 292.73932 325.29905 291.89258 325.37305 z M 355.06055 325.77148 C 354.30609 325.79186 353.56493 326.34709 353.59375 327.41406 C 353.63726 330.99857 353.72658 334.58743 354.03711 338.16016 C 354.08892 340.07839 356.80182 340.00418 356.75 338.08594 C 356.8672 334.50166 356.76134 330.91367 356.61133 327.33203 C 356.58251 326.26507 355.81501 325.7511 355.06055 325.77148 z M 372.76758 334.05859 C 371.929 334.07339 371.10575 334.76432 371.33594 335.92773 C 371.97144 339.41082 372.65139 342.89093 373.54492 346.31836 C 373.91277 348.1776 376.54169 347.65807 376.17383 345.79883 C 375.69489 342.28937 374.99849 338.81227 374.25977 335.34961 C 374.08073 334.44473 373.41981 334.04709 372.76758 334.05859 z M 346.52344 341.23438 C 345.87192 341.28565 345.24968 341.74644 345.1582 342.66602 C 344.75467 346.19008 344.39582 349.72379 344.25586 353.26953 C 344.06791 355.15899 346.73978 355.4246 346.92773 353.53516 C 347.48901 350.03132 347.83224 346.49739 348.13086 342.96289 C 348.24847 341.78058 347.3611 341.16845 346.52344 341.23438 z "
       transform="scale(0.26458333)"
       id="path3631" />
    <path
       style="opacity:1;fill:#095f00;fill-opacity:1;stroke-width:0.99652582"
       d="M 249.96875 177.41797 C 249.31869 177.45176 248.68967 177.89542 248.57422 178.80859 C 248.07901 182.3067 247.62589 185.81512 247.39258 189.3418 C 247.15537 191.21809 249.80967 191.55402 250.04688 189.67773 C 250.69858 186.20396 251.13439 182.69292 251.52539 179.18164 C 251.67382 178.00756 250.80454 177.37453 249.96875 177.41797 z M 198.11719 193.87695 C 197.46341 193.89514 196.81974 194.32382 196.68164 195.23828 C 196.09947 198.74002 195.5601 202.25424 195.24023 205.79102 C 194.95649 207.66994 197.61471 208.07033 197.89844 206.19141 C 198.63723 202.71789 199.15885 199.20304 199.63672 195.68555 C 199.81427 194.50981 198.95776 193.85357 198.11719 193.87695 z M 205.3457 214.82031 C 204.69231 214.83378 204.04496 215.25718 203.90039 216.16992 C 203.2935 219.6647 202.73175 223.17144 202.38672 226.70312 C 202.08969 228.57852 204.74008 228.99844 205.03711 227.12305 C 205.80031 223.6576 206.34878 220.14799 206.85156 216.63672 C 207.03743 215.46319 206.18578 214.803 205.3457 214.82031 z M 226.73828 243.14844 C 226.08904 243.11839 225.42089 243.49648 225.2168 244.39258 C 224.3824 247.82008 223.58874 251.26263 223.01172 254.74414 C 222.59238 256.58533 225.19589 257.17713 225.61523 255.33594 C 226.60278 251.94793 227.38107 248.50155 228.11328 245.05078 C 228.37568 243.89866 227.57303 243.18707 226.73828 243.14844 z "
       transform="scale(0.26458333)"
       id="path3682" />
  </g>
</svg>
