<?xml version="1.0" encoding="UTF-8" standalone="no"?>
<!-- Created with Inkscape (http://www.inkscape.org/) -->

<svg
   xmlns:dc="http://purl.org/dc/elements/1.1/"
   xmlns:cc="http://creativecommons.org/ns#"
   xmlns:rdf="http://www.w3.org/1999/02/22-rdf-syntax-ns#"
   xmlns:svg="http://www.w3.org/2000/svg"
   xmlns="http://www.w3.org/2000/svg"
   xmlns:sodipodi="http://sodipodi.sourceforge.net/DTD/sodipodi-0.dtd"
   xmlns:inkscape="http://www.inkscape.org/namespaces/inkscape"
   width="210mm"
   height="297mm"
   viewBox="0 0 210 297"
   version="1.1"
   id="svg2816"
   sodipodi:docname="menuTex.svg"
   inkscape:version="0.92.2 (5c3e80d, 2017-08-06)">
  <defs
     id="defs2810" />
  <sodipodi:namedview
     id="base"
     pagecolor="#ffffff"
     bordercolor="#666666"
     borderopacity="1.0"
     inkscape:pageopacity="0.0"
     inkscape:pageshadow="2"
     inkscape:zoom="1.4"
     inkscape:cx="128.35026"
     inkscape:cy="73.775248"
     inkscape:document-units="mm"
     inkscape:current-layer="layer1"
     showgrid="false"
     inkscape:window-width="1920"
     inkscape:window-height="1017"
     inkscape:window-x="-8"
     inkscape:window-y="-8"
     inkscape:window-maximized="1" />
  <metadata
     id="metadata2813">
    <rdf:RDF>
      <cc:Work
         rdf:about="">
        <dc:format>image/svg+xml</dc:format>
        <dc:type
           rdf:resource="http://purl.org/dc/dcmitype/StillImage" />
      </cc:Work>
    </rdf:RDF>
  </metadata>
  <g
     inkscape:label="Layer 1"
     inkscape:groupmode="layer"
     id="layer1">
    <rect
       style="opacity:1;fill:#6ef13c;fill-opacity:1;stroke-width:0.03674768"
       id="rect10"
       width="52.916668"
       height="52.916668"
       x="0"
       y="244.08333"
       inkscape:export-xdpi="96"
       inkscape:export-ydpi="96"
       inkscape:export-filename="C:\Users\Simon\git\bug-catcher\web\assets\textures\menu.png" />
    <path
       style="opacity:1;fill:#4366eb;fill-opacity:0.35353535;stroke-width:0.26458332"
       id="path2833"
       d="m 8.662949,253.31964 c -0.5481301,0.0929 -1.1313604,0.11906 -1.6636952,-0.0692 -0.2869949,-0.10149 -0.4592741,-0.22233 -0.7141789,-0.37666 -0.5361697,-0.40294 -0.811657,-0.79282 -0.9541645,-1.44065 -0.04401,-0.42742 0.00495,-0.86053 0.1137809,-1.27467 0.1092208,-0.34377 0.3198365,-0.6382 0.4916895,-0.95136 0.3276735,-0.54713 0.6640509,-0.71841 1.2781044,-0.82153 0.23056,-0.0328 0.4632899,-0.0371 0.6956653,-0.0355 0.8915648,-0.2334 1.2216449,1.02746 0.3300801,1.26086 v 0 c -0.1826088,0.004 -0.3648575,0.0151 -0.5465564,0.0343 -0.085122,0.008 -0.2006447,0.0266 -0.2903247,0.0112 -0.040942,-0.007 -0.078316,-0.0588 -0.1168389,-0.0433 -0.036153,0.0146 -0.1316268,0.13688 -0.1479722,0.15636 -0.1317291,0.21995 -0.2834571,0.43171 -0.38067,0.66922 -0.060421,0.24719 -0.1293323,0.49767 -0.1329685,0.7534 0.062472,0.26309 0.3526784,0.44157 0.5565857,0.58143 0.1771174,0.09 0.2523133,0.13881 0.4402531,0.19494 0.069246,0.0207 0.1458421,0.0172 0.2116315,0.0471 0.027565,0.0125 -0.1205217,0.004 -0.090489,0.008 0.093196,0.012 0.1876018,0.011 0.2814024,0.0166 0.071589,0.0106 0.1431787,0.0211 0.2147681,0.0317 0.882333,-0.29975 1.3062299,0.94806 0.4238971,1.2478 z"
       inkscape:connector-curvature="0" />
    <path
       style="opacity:1;fill:#4366eb;fill-opacity:0.35353535;stroke-width:1.07008338"
       d="m 145.96289,928.48828 c -0.37004,-0.002 -0.77058,0.071 -1.19336,0.24219 -0.91326,0.11165 -1.82425,0.24809 -2.71289,0.49414 -2.35876,0.71679 -3.59279,1.56019 -4.60156,3.875 -0.51576,1.3169 -1.19298,2.57907 -1.44727,3.98437 -0.21698,1.68144 -0.1887,3.40654 0.20117,5.0625 0.88856,2.47136 2.16662,3.86392 4.47657,5.17383 1.07928,0.47656 1.81764,0.86239 2.99609,1.11524 2.18587,0.46892 4.46325,0.0708 6.56836,-0.57227 v -0.004 c 3.31233,-1.62501 1.01349,-6.30872 -2.29883,-4.6836 -0.28648,-0.004 -0.57288,-0.0118 -0.85937,-0.0156 -0.37118,0.0257 -0.74123,0.078 -1.11328,0.0781 -0.11988,3.8e-4 0.46615,-0.0421 0.35156,-0.0762 -0.2735,-0.0847 -0.57306,-0.0301 -0.85547,-0.0762 -0.76647,-0.12499 -1.08694,-0.27954 -1.82813,-0.54297 -0.87168,-0.44561 -2.10155,-0.99869 -2.48046,-2 -0.11558,-1.006 0.0289,-2.02408 0.14062,-3.02539 0.2611,-0.98196 0.74875,-1.89171 1.1543,-2.82227 0.0543,-0.0848 0.3674,-0.61191 0.50195,-0.6875 0.14343,-0.0805 0.31632,0.1056 0.48047,0.10938 0.35999,0.0151 0.80462,-0.11809 1.13476,-0.19141 0.70372,-0.16758 1.41382,-0.30439 2.12891,-0.41211 2.95949,-1.19809 1.84612,-5.00841 -0.74414,-5.02539 z M 10.961863,960.8163 c -2.3864398,-4e-5 -3.7656921,0.43299 -5.3515622,2.29297 -0.8483667,1.07455 -1.8318271,2.05514 -2.4628911,3.28515 -0.674267,1.49628 -1.133278,3.10261 -1.238281,4.7461 0.127378,2.53912 0.920616,4.1874 2.6914065,6.05078 0.865505,0.74517 1.4405966,1.31112 2.4609375,1.87695 1.8925701,1.04946 4.1133673,1.31955 6.2441403,1.31641 v 0.002 c 3.525298,-0.57282 2.714751,-5.55911 -0.810547,-4.98633 -0.263892,-0.085 -0.527189,-0.17006 -0.791015,-0.25586 -0.351038,-0.0801 -0.710067,-0.13554 -1.054688,-0.24023 -0.111015,-0.0351 0.443895,0.092 0.347657,0.0273 -0.229637,-0.15496 -0.520945,-0.19237 -0.769532,-0.31445 -0.6747335,-0.33146 -0.9287107,-0.56289 -1.5410153,-1.01562 -0.6819307,-0.6581 -1.6652663,-1.51671 -1.734375,-2.55079 0.1760935,-0.9643 0.5951705,-1.86777 0.9804688,-2.76367 0.5182279,-0.83607 1.2276991,-1.5394 1.8652343,-2.28711 0.074146,-0.0632 0.5122872,-0.46403 0.6582032,-0.49804 0.155435,-0.034 0.263694,0.18612 0.414062,0.23828 0.329204,0.11527 0.776765,0.11991 1.103516,0.14257 0.698987,0.0427 1.395169,0.11589 2.087891,0.2168 3.518078,-0.31619 3.070806,-5.29095 -0.447266,-4.97461 -0.877322,-0.15382 -1.760035,-0.28591 -2.652344,-0.30859 z m 97.108447,-25.06044 c -0.74123,-0.002 -1.50735,0.36212 -2.05469,1.24414 -0.61111,0.57252 -1.20921,1.16042 -1.73046,1.81836 -1.3493,1.79331 -1.80383,3.07697 -1.30274,5.32031 0.32787,1.24509 0.50865,2.53734 1.07617,3.70703 0.74318,1.35266 1.68956,2.60517 2.86524,3.61328 1.98006,1.3397 3.66689,1.67548 6.06836,1.39844 1.04929,-0.22911 1.80062,-0.34029 2.80273,-0.78711 1.85875,-0.82881 3.31722,-2.34425 4.51953,-3.94726 h 0.002 c 1.56269,-2.97302 -2.64239,-5.182 -4.20508,-2.20899 -0.21342,0.15005 -0.4272,0.29917 -0.64063,0.44922 -0.25899,0.21823 -0.50209,0.45631 -0.77539,0.65625 -0.0889,0.0635 0.31788,-0.28011 0.21485,-0.24609 -0.24614,0.085 -0.43764,0.28247 -0.66993,0.40039 -0.63058,0.31978 -0.9485,0.37951 -1.63476,0.58398 -0.88007,0.1406 -2.08229,0.39406 -2.89844,-0.13867 -0.62509,-0.67756 -1.06604,-1.5047 -1.52148,-2.30078 -0.33525,-0.86211 -0.46457,-1.79153 -0.66602,-2.69336 -0.006,-0.0915 -0.0584,-0.64764 0,-0.77539 0.0622,-0.13644 0.28686,-0.0956 0.41211,-0.17773 0.27268,-0.18225 0.53071,-0.51704 0.73242,-0.75 0.42736,-0.50106 0.8768,-0.98123 1.34375,-1.44532 1.20413,-1.9404 -0.30678,-3.71664 -1.9375,-3.7207 z m -45.576169,24.64258 c -0.469551,-0.0147 -0.94028,-0.012 -1.410157,0.0195 -2.507588,0.23153 -3.914563,0.82135 -5.40039,2.92969 -0.787132,1.21149 -1.72582,2.3357 -2.269532,3.68945 -0.563227,1.63763 -0.891006,3.37035 -0.841796,5.10742 0.380299,2.65565 1.374462,4.31157 3.416015,6.09766 0.98177,0.69895 1.640519,1.23696 2.767578,1.73242 2.09054,0.91892 4.450844,0.98944 6.689453,0.7793 v 0.002 c 3.648651,-0.94409 2.31467,-6.10428 -1.333984,-5.16016 -0.28557,-0.0643 -0.571841,-0.12715 -0.857422,-0.1914 -0.376637,-0.0507 -0.758576,-0.076 -1.130859,-0.15235 -0.119732,-0.0302 0.474602,0.0512 0.367187,-0.008 -0.256369,-0.1406 -0.564819,-0.14764 -0.83789,-0.25195 -0.741162,-0.28282 -1.029452,-0.50376 -1.716797,-0.91992 -0.780427,-0.62529 -1.897324,-1.43184 -2.070313,-2.51172 0.09143,-1.0303 0.443823,-2.01923 0.761719,-2.99805 0.463382,-0.92878 1.139008,-1.73838 1.736328,-2.58594 0.07177,-0.0737 0.49238,-0.53793 0.642578,-0.58594 0.160048,-0.0508 0.295823,0.17044 0.458985,0.20899 0.357074,0.0892 0.827963,0.0505 1.173828,0.043 0.738588,-0.0219 1.477212,-0.0143 2.214844,0.0254 3.665967,-0.6737 2.712846,-5.85733 -0.953125,-5.18359 -0.468376,-0.0386 -0.9367,-0.0712 -1.40625,-0.0859 z m 110.148439,0.64844 c -0.35302,0.0258 -0.72717,0.12669 -1.11719,0.32226 -0.86223,0.17647 -1.7223,0.37499 -2.55078,0.67774 -2.19419,0.86379 -3.30521,1.76256 -4.08984,4.04687 -0.39094,1.29521 -0.94132,2.55265 -1.07618,3.91211 -0.0782,1.61987 0.0815,3.26342 0.58008,4.8125 1.03647,2.28843 2.3632,3.51583 4.66602,4.58789 1.06557,0.37172 1.7984,0.68513 2.9414,0.83594 2.12009,0.27957 4.2608,-0.27632 6.21875,-1.05078 3.03387,-1.80307 0.48308,-6.09412 -2.55078,-4.29102 -0.27362,0.017 -0.54675,0.0357 -0.82031,0.0508 -0.35193,0.0529 -0.70193,0.12992 -1.05664,0.16016 -0.1144,0.009 0.44199,-0.0751 0.33008,-0.10156 -0.26726,-0.0586 -0.54776,0.0149 -0.82031,-0.008 -0.74039,-0.0605 -1.05827,-0.18035 -1.78516,-0.375 -0.86527,-0.35818 -2.07962,-0.79303 -2.51758,-1.71875 -0.18724,-0.95032 -0.12947,-1.93124 -0.0996,-2.89453 0.17377,-0.95629 0.56933,-1.86119 0.88477,-2.77929 0.0453,-0.085 0.30325,-0.61292 0.42578,-0.69532 0.13059,-0.0877 0.3096,0.0759 0.4668,0.0684 0.34412,-0.0132 0.75727,-0.17315 1.0664,-0.26953 0.65809,-0.21411 1.3246,-0.3967 1.99805,-0.55469 2.73012,-1.369 1.37734,-4.91847 -1.09375,-4.73632 z M 36.974609,974.3457 c -0.198581,0.003 -0.408399,0.026 -0.626953,0.0703 -0.897909,-0.0582 -1.798936,-0.0924 -2.697265,-0.0156 -2.395946,0.2657 -3.732138,0.85443 -5.117188,2.89844 -0.732083,1.17335 -1.610819,2.26704 -2.107422,3.57226 -0.510327,1.57728 -0.792449,3.2406 -0.714843,4.90235 0.410638,2.535 1.391607,4.10174 3.376953,5.77539 0.951931,0.6517 1.590322,1.15496 2.677734,1.60937 2.016989,0.8431 4.2771,0.86967 6.416016,0.62891 v 0.002 c 3.47554,-0.96767 2.108355,-5.88173 -1.367188,-4.91406 -0.274426,-0.0563 -0.549795,-0.11323 -0.824219,-0.16992 -0.361381,-0.0419 -0.726335,-0.0585 -1.083984,-0.125 -0.115248,-0.0227 0.455409,0.0427 0.351562,-0.0117 -0.24784,-0.12964 -0.545402,-0.1317 -0.808593,-0.22656 -0.714334,-0.25765 -0.993038,-0.46334 -1.658203,-0.84961 -0.757931,-0.58481 -1.840852,-1.3367 -2.025391,-2.36719 0.06941,-0.98774 0.388719,-1.9423 0.675781,-2.88477 0.427186,-0.89703 1.060381,-1.68223 1.617188,-2.5039 0.0674,-0.0718 0.462551,-0.52351 0.605468,-0.57227 0.152249,-0.0514 0.284624,0.15935 0.441407,0.19336 0.343319,0.0786 0.794268,0.0289 1.125,0.0176 0.706499,-0.034 1.414375,-0.0363 2.121093,-0.0137 3.278311,-0.6649 2.601765,-5.05414 -0.376953,-5.01563 z m 66.431641,9.82422 c -0.91023,-3.3e-4 -1.83137,0.51096 -2.28516,1.71289 -0.50476,0.70103 -0.99231,1.41589 -1.388668,2.18555 -1.008148,2.08354 -1.211845,3.47226 -0.257813,5.64258 0.579811,1.19463 1.018831,2.46652 1.826171,3.53711 1.02153,1.22075 2.23052,2.29986 3.6211,3.08595 2.27061,0.9615 4.04495,0.9659 6.41992,0.207 1.01619,-0.4409 1.75277,-0.7036 2.67773,-1.35545 1.71593,-1.209 2.89179,-3.03473 3.78906,-4.89649 0.98911,-3.31986 -3.70623,-4.71824 -4.69531,-1.39844 -0.18634,0.19412 -0.37256,0.38972 -0.55859,0.58399 -0.21872,0.27235 -0.41747,0.55978 -0.6543,0.81641 -0.0769,0.0824 0.26713,-0.34771 0.16992,-0.29102 -0.23215,0.13519 -0.38581,0.37585 -0.59765,0.54102 -0.57445,0.44908 -0.88528,0.5705 -1.53907,0.91406 -0.86264,0.31744 -2.02693,0.81394 -2.95898,0.4375 -0.76754,-0.56111 -1.3805,-1.30854 -2,-2.02344 -0.51099,-0.80561 -0.82545,-1.72125 -1.20899,-2.59375 -0.0239,-0.0915 -0.1895,-0.64418 -0.15624,-0.78516 0.0359,-0.15004 0.27316,-0.15286 0.38281,-0.26171 0.23976,-0.23868 0.4314,-0.62877 0.58984,-0.9043 0.33257,-0.59225 0.69181,-1.16808 1.07227,-1.73047 0.75631,-2.00324 -0.731,-3.42327 -2.24805,-3.42383 z m -82.176629,21.06518 c -0.578899,-0.037 -1.207123,0.1661 -1.789062,0.709 -0.709158,0.3761 -1.409525,0.7702 -2.056641,1.2481 -1.697723,1.3205 -2.438184,2.3929 -2.537109,4.5937 -0.0089,1.2339 -0.167247,2.4731 0.06445,3.6973 0.348299,1.4376 0.909396,2.8352 1.74414,4.0625 1.49565,1.7358 2.972808,2.4686 5.263672,2.8144 1.028053,0.051 1.750027,0.1368 2.789063,-0.025 1.927225,-0.3006 3.657795,-1.3363 5.171875,-2.5176 v 0 c 2.190915,-2.3582 -1.145057,-5.4559 -3.335938,-3.0976 -0.235051,0.085 -0.469489,0.1715 -0.705078,0.2558 -0.294323,0.137 -0.57974,0.2938 -0.882813,0.4102 -0.09669,0.039 0.367931,-0.1795 0.263672,-0.1719 -0.248998,0.017 -0.476269,0.1544 -0.720703,0.2051 -0.663423,0.1368 -0.972236,0.11 -1.658203,0.1289 -0.849289,-0.091 -2.025107,-0.1581 -2.646484,-0.8555 -0.408339,-0.7834 -0.610343,-1.6572 -0.832032,-2.5078 -0.09395,-0.8815 0.02078,-1.7734 0.06055,-2.6582 0.01776,-0.086 0.107311,-0.6152 0.19336,-0.7187 0.09182,-0.11 0.290542,-0.011 0.425781,-0.059 0.297945,-0.1002 0.61901,-0.3489 0.865234,-0.5118 0.520819,-0.3565 1.057481,-0.687 1.605469,-1 1.745818,-1.6287 0.453494,-3.8885 -1.283203,-4 z m 99.098499,12.7337 c -1.54472,-0.043 -2.74946,0.3762 -4.21484,1.5996 -1.05917,0.9542 -2.24014,1.7875 -3.10351,2.9394 -0.95438,1.4176 -1.70764,2.9858 -2.10352,4.6543 -0.31438,2.6286 0.21025,4.4605 1.70117,6.6836 0.75776,0.9166 1.24915,1.5978 2.19727,2.3574 1.75857,1.4092 3.99008,2.0769 6.17773,2.4473 v 0 c 3.71887,0.03 3.76187,-5.2295 0.043,-5.2597 -0.25584,-0.1342 -0.51174,-0.2682 -0.76758,-0.4024 -0.34613,-0.1442 -0.70366,-0.2638 -1.03906,-0.4316 -0.10818,-0.054 0.43902,0.1734 0.35156,0.09 -0.20871,-0.1988 -0.50264,-0.2857 -0.73633,-0.455 -0.63445,-0.4585 -0.85313,-0.7407 -1.40234,-1.3125 -0.58458,-0.7951 -1.44239,-1.8484 -1.33203,-2.9219 0.34979,-0.9589 0.93768,-1.8139 1.49023,-2.666 0.67847,-0.7673 1.52898,-1.3658 2.31446,-2.0215 0.0872,-0.052 0.60825,-0.387 0.76367,-0.3946 0.16556,-0.01 0.23722,0.2378 0.38281,0.3165 0.31766,0.1761 0.77863,0.2566 1.10938,0.3398 0.70985,0.1667 1.4104,0.3642 2.10351,0.5898 3.66648,0.2923 4.08055,-4.8933 0.41406,-5.1855 -0.87355,-0.3115 -1.75607,-0.6017 -2.66796,-0.7813 -0.61238,-0.1046 -1.16671,-0.17 -1.68165,-0.1835 z m -27.67187,12.5292 c -0.798611,-0.052 -1.648101,0.2893 -2.296875,1.2032 -0.69702,0.5761 -1.380651,1.1716 -1.986328,1.8457 -1.573909,1.8422 -2.149719,3.1936 -1.759766,5.6445 0.270021,1.3636 0.378758,2.768 0.91211,4.0664 0.710385,1.5073 1.646251,2.921 2.845703,4.086 0.858369,0.6607 1.675971,1.1202 2.52539,1.4296 0.43731,0.5879 0.924773,1.138 1.46875,1.6309 1.868448,1.3403 3.48275,1.7072 5.798826,1.5039 1.01485,-0.1926 1.73964,-0.2804 2.71485,-0.6836 1.80889,-0.7479 3.25117,-2.1662 4.44921,-3.6758 v 0 c 1.07948,-1.9241 -0.43643,-3.5722 -2.00976,-3.5293 0.99593,-2.8092 -2.92341,-4.9249 -4.67774,-2.0371 -0.23983,0.1475 -0.47874,0.294 -0.718745,0.4414 -0.293866,0.2176 -0.573017,0.457 -0.880859,0.6543 -0.09929,0.063 0.363537,-0.2803 0.25,-0.25 -0.271,0.075 -0.491745,0.2771 -0.75,0.3886 -0.700865,0.3023 -1.045528,0.3453 -1.798828,0.5196 -0.365364,0.035 -0.784276,0.073 -1.207032,0.086 -0.150922,-0.6238 -0.240633,-1.265 -0.363281,-1.8945 -0.003,-0.088 -0.03984,-0.6248 0.01953,-0.7461 0.06344,-0.1289 0.281626,-0.08 0.402344,-0.1582 0.266861,-0.1681 0.520867,-0.4862 0.722656,-0.7031 0.424052,-0.4705 0.869328,-0.9192 1.330078,-1.3536 1.758119,-2.6673 -2.015318,-5.1538 -3.773437,-2.4863 -0.602718,0.5345 -1.192477,1.0843 -1.710938,1.7031 -0.155836,0.1958 -0.297365,0.383 -0.429687,0.5684 -0.04067,-0.2962 -0.08019,-0.5928 -0.126953,-0.8867 7.5e-5,-0.099 -0.02065,-0.7022 0.05078,-0.836 0.07631,-0.144 0.315954,-0.08 0.455078,-0.1621 0.306093,-0.178 0.605362,-0.5239 0.839844,-0.7597 0.493916,-0.5115 1.007988,-0.9989 1.542969,-1.4668 1.42732,-2.0107 -0.08095,-4.0273 -1.837891,-4.1407 z m 32.69727,7.2247 c -0.71597,0 -1.4774,0.155 -2.36719,0.4726 -1.31022,0.5241 -2.69074,0.8952 -3.88672,1.6699 -1.37138,0.9903 -2.60847,2.1872 -3.54688,3.6016 -1.1911,2.334 -1.32957,4.2161 -0.70507,6.791 0.39036,1.1106 0.61352,1.9115 1.23437,2.9414 1.15165,1.9103 2.99696,3.2945 4.90235,4.3867 v 0 c 3.44391,1.2999 5.282,-3.5713 1.83789,-4.8711 -0.192,-0.2118 -0.38249,-0.4227 -0.57422,-0.6348 -0.27224,-0.2523 -0.5643,-0.4872 -0.81836,-0.7578 -0.082,-0.087 0.34757,0.3124 0.29492,0.2051 -0.1258,-0.2562 -0.36796,-0.4388 -0.52734,-0.6758 -0.4325,-0.6429 -0.5391,-0.98 -0.85352,-1.6992 -0.27095,-0.9385 -0.70795,-2.2105 -0.23828,-3.1699 0.65291,-0.7711 1.49217,-1.3624 2.29687,-1.9649 0.89266,-0.4806 1.88596,-0.7454 2.83985,-1.0859 0.0988,-0.018 0.69672,-0.1535 0.84375,-0.1074 0.15643,0.049 0.13995,0.3025 0.24804,0.4257 0.23494,0.2721 0.63518,0.5052 0.91407,0.6954 0.60259,0.3973 1.1872,0.819 1.7539,1.2656 3.30574,1.5255 5.46199,-3.1484 2.15625,-4.6738 -0.70484,-0.5882 -1.42518,-1.1602 -2.21093,-1.6387 -1.33261,-0.7666 -2.40048,-1.1786 -3.59375,-1.1738 z m -82.474614,2.0175 c -0.542837,0.01 -1.125216,0.1866 -1.708984,0.5996 -0.902362,0.3326 -1.799229,0.6895 -2.644531,1.1524 -2.228296,1.294 -3.281757,2.4463 -3.753907,5.043 -0.209447,1.4634 -0.595334,2.9116 -0.517578,4.4023 0.181783,1.7627 0.62286,3.512 1.416016,5.1035 1.495804,2.3018 3.131054,3.4098 5.794922,4.1895 1.212215,0.2265 2.054922,0.4444 3.314453,0.4179 2.336288,-0.046 4.557091,-0.9959 6.544922,-2.1543 h 0.002 c 2.981019,-2.4464 -0.479926,-6.6613 -3.460938,-4.2148 -0.292732,0.063 -0.584228,0.1263 -0.876953,0.1895 -0.371584,0.114 -0.736813,0.2561 -1.115234,0.3457 -0.122982,0.026 0.464833,-0.1566 0.339844,-0.1641 -0.298473,-0.02 -0.590241,0.108 -0.888672,0.1269 -0.809756,0.056 -1.173116,-0.025 -1.990235,-0.1152 -0.993585,-0.2447 -2.376683,-0.5114 -3.001953,-1.4394 -0.358484,-0.9959 -0.457899,-2.0678 -0.583984,-3.1133 0.03052,-1.0617 0.310192,-2.1026 0.5,-3.1465 0.03492,-0.099 0.22695,-0.7111 0.345703,-0.8203 0.126599,-0.1163 0.346378,0.026 0.515625,0 0.369729,-0.071 0.789677,-0.3111 1.107422,-0.4668 0.675734,-0.3394 1.366346,-0.6477 2.068359,-0.9278 2.52966,-1.7898 0.946045,-5.0325 -1.40625,-5.0039 z m 140.607144,17.2445 c -1.15598,-0.043 -2.19613,0.2749 -3.47071,1.1016 -1.11352,0.7833 -2.32876,1.4383 -3.27929,2.4316 -1.06727,1.2347 -1.96086,2.6353 -2.52735,4.1719 -0.59916,2.4561 -0.30931,4.2527 0.84961,6.5312 0.61343,0.9559 0.99863,1.6575 1.81055,2.4864 1.50592,1.5374 3.54638,2.4257 5.57812,3.0273 3.52249,0.4545 4.16508,-4.526 0.64258,-4.9805 -0.2272,-0.1563 -0.45445,-0.3122 -0.68164,-0.4687 -0.31169,-0.1766 -0.63674,-0.332 -0.93555,-0.5293 -0.0961,-0.064 0.39758,0.2142 0.32422,0.125 -0.1749,-0.2128 -0.44428,-0.3286 -0.64648,-0.5156 -0.54902,-0.5074 -0.72444,-0.8013 -1.17969,-1.4063 -0.46318,-0.8207 -1.15534,-1.9186 -0.92773,-2.9238 0.44147,-0.8691 1.09726,-1.6109 1.71875,-2.3555 0.73115,-0.6497 1.60596,-1.1206 2.42578,-1.6523 0.0886,-0.039 0.61938,-0.2985 0.76758,-0.2871 0.15779,0.012 0.19966,0.2531 0.32812,0.3457 0.28113,0.203 0.70709,0.3335 1.01172,0.4492 0.6541,0.239 1.29614,0.5059 1.92773,0.7988 3.44278,0.697 4.42909,-4.1721 0.98633,-4.8691 -0.79259,-0.3953 -1.59729,-0.7706 -2.4414,-1.045 -0.85293,-0.2539 -1.58767,-0.4099 -2.28125,-0.4355 z m -25.50167,26.0583 c -1.12935,0.028 -2.12221,0.4021 -3.31446,1.2851 -1.03788,0.8311 -2.18254,1.5426 -3.04883,2.5684 -0.96541,1.2682 -1.75194,2.6866 -2.21093,4.2187 -0.43511,2.4304 -0.0451,4.1638 1.22265,6.3145 0.65589,0.8945 1.0743,1.556 1.91602,2.3144 1.56103,1.4075 3.60423,2.1501 5.62109,2.6133 3.46101,0.2295 3.78525,-4.6651 0.32422,-4.8945 -0.23101,-0.1385 -0.46235,-0.2757 -0.69336,-0.4141 -0.31432,-0.1536 -0.64009,-0.2847 -0.94336,-0.459 -0.0974,-0.057 0.39918,0.182 0.32227,0.1 -0.18339,-0.197 -0.45168,-0.2929 -0.66016,-0.4629 -0.5659,-0.4613 -0.75398,-0.7367 -1.23437,-1.2989 -0.50124,-0.7719 -1.24488,-1.7994 -1.08399,-2.7929 0.37763,-0.8739 0.97257,-1.637 1.53321,-2.4004 0.67319,-0.6777 1.4968,-1.1899 2.26367,-1.7578 0.084,-0.043 0.58728,-0.3276 0.73242,-0.3262 0.15462,0 0.20926,0.2336 0.33984,0.3164 0.28624,0.181 0.70946,0.2813 1.01367,0.375 0.652,0.1934 1.29422,0.4173 1.92774,0.6641 3.39802,0.4707 4.06405,-4.336 0.66601,-4.8067 -0.79661,-0.337 -1.60202,-0.6545 -2.4414,-0.8711 -0.84677,-0.1958 -1.57445,-0.3022 -2.25195,-0.2851 z m -63.490239,0.334 c -0.811122,0.036 -1.608398,0.2972 -2.554688,0.8437 -1.036237,0.6518 -2.157034,1.1816 -3.056641,2.0293 -1.01563,1.0592 -1.882933,2.2754 -2.46289,3.6289 -0.65201,2.1777 -0.477865,3.8045 0.457031,5.9043 0.506491,0.8867 0.821086,1.5346 1.511719,2.3164 0.71461,0.8091 1.596376,1.4311 2.541016,1.9453 0.108832,0.1436 0.207998,0.2934 0.328124,0.4297 1.15502,1.1835 2.491378,2.2064 3.994141,2.9102 2.428339,0.8155 4.26615,0.6776 6.666017,-0.2969 1.01763,-0.5373 1.76151,-0.8667 2.66797,-1.6152 1.68134,-1.3886 2.75327,-3.3716 3.53515,-5.3711 0.76115,-3.5173 -4.21349,-4.5936 -4.97461,-1.0762 -0.17729,0.216 -0.3559,0.4322 -0.5332,0.6484 -0.20522,0.2993 -0.38821,0.6139 -0.61328,0.8985 -0.0726,0.092 0.25056,-0.383 0.1543,-0.3164 -0.22961,0.1585 -0.36985,0.4192 -0.57618,0.6074 -0.55928,0.5107 -0.87132,0.6628 -1.52148,1.0703 -0.868363,0.3971 -2.035918,1.0035 -3.031249,0.6875 -0.839539,-0.5203 -1.53205,-1.2461 -2.230469,-1.9375 -0.59325,-0.7939 -0.992521,-1.7178 -1.458984,-2.5898 -0.03198,-0.093 -0.248043,-0.6523 -0.22461,-0.8008 0.02536,-0.1584 0.272903,-0.1787 0.376953,-0.3008 0.22944,-0.2662 0.395819,-0.6869 0.539063,-0.9844 0.297286,-0.64 0.622672,-1.2645 0.972656,-1.8769 0.269932,-0.9229 0.105428,-1.6929 -0.285156,-2.2676 0.163644,-0.065 0.481453,-0.1923 0.591797,-0.1797 0.141089,0.018 0.167687,0.2361 0.279297,0.3242 0.24288,0.1958 0.618901,0.3325 0.886718,0.4512 0.576178,0.2451 1.141019,0.5156 1.695313,0.8066 3.059071,0.7857 4.170401,-3.5405 1.111328,-4.3261 -0.693434,-0.3916 -1.399416,-0.7651 -2.144531,-1.0508 -1.005462,-0.3569 -1.829504,-0.5474 -2.640625,-0.5117 z m -71.06415,-1.2579 c -0.516543,-0.01 -1.077934,0.046 -1.707031,0.1641 -1.398458,0.3185 -2.842543,0.4704 -4.166015,1.0586 -1.533771,0.7769 -2.966507,1.7834 -4.132813,3.0547 -1.565761,2.1544 -2.002023,4.021 -1.783203,6.705 0.215857,1.1769 0.313383,2.0161 0.773437,3.1485 0.853367,2.1003 2.484802,3.7831 4.22461,5.1816 h 0.002 c 3.251633,1.851 5.86885,-2.7487 2.617187,-4.5996 -0.158843,-0.2434 -0.31772,-0.4851 -0.476562,-0.7285 -0.233304,-0.2965 -0.486749,-0.5788 -0.699219,-0.8906 -0.06873,-0.1002 0.29954,0.368 0.263672,0.2519 -0.08572,-0.2771 -0.301478,-0.4967 -0.423828,-0.7597 -0.332297,-0.7141 -0.386121,-1.0701 -0.587891,-1.8418 -0.123395,-0.9851 -0.359935,-2.3339 0.263672,-3.2227 0.777682,-0.6706 1.713811,-1.1301 2.617187,-1.6074 0.972367,-0.341 2.011834,-0.4502 3.023438,-0.6406 0.102079,0 0.723114,-0.042 0.863281,0.027 0.149329,0.074 0.09232,0.3242 0.181641,0.4648 0.192639,0.3105 0.559126,0.6064 0.808594,0.8418 0.541904,0.4946 1.060625,1.0125 1.558593,1.5508 3.076996,2.0555 5.983245,-2.296 2.90625,-4.3515 -0.614484,-0.7022 -1.246154,-1.3891 -1.958984,-1.9942 -1.459627,-1.1769 -2.61834,-1.7832 -4.167969,-1.8125 z m 49.62665,10.8418 c -0.941017,0.069 -1.850647,0.6746 -2.199219,1.961 -0.441921,0.7585 -0.865687,1.5285 -1.191406,2.3457 -0.815989,2.2061 -0.88814,3.6305 0.289062,5.7324 0.703291,1.1517 1.273996,2.3945 2.195313,3.3984 1.152612,1.1349 2.479494,2.1106 3.96289,2.7696 2.390725,0.7504 4.18568,0.5799 6.513672,-0.42 0.984752,-0.5453 1.704265,-0.883 2.576172,-1.6328 1.617407,-1.3906 2.627744,-3.3515 3.353516,-5.3222 0.675794,-3.4547 -4.209005,-4.4098 -4.884766,-0.9551 -0.169293,0.2147 -0.338527,0.4298 -0.507813,0.6445 -0.194616,0.2969 -0.369496,0.6079 -0.583984,0.8906 -0.06954,0.091 0.237319,-0.3794 0.144531,-0.3125 -0.221676,0.1594 -0.354725,0.4177 -0.552734,0.6055 -0.537109,0.5104 -0.838881,0.665 -1.466797,1.0762 -0.841512,0.4055 -1.971643,1.0219 -2.951172,0.7324 -0.831205,-0.4925 -1.522224,-1.189 -2.21875,-1.8516 -0.59565,-0.7649 -1.00335,-1.6608 -1.476562,-2.5058 -0.03311,-0.09 -0.254407,-0.6334 -0.234375,-0.7793 0.02158,-0.1553 0.261435,-0.1798 0.361328,-0.3008 0.219035,-0.2649 0.374093,-0.6786 0.507812,-0.9726 0.278495,-0.6316 0.585988,-1.2495 0.916016,-1.8555 0.512188,-1.8902 -0.768764,-3.1239 -2.148437,-3.2442 -0.134137,-0.012 -0.269866,-0.014 -0.404297,0 z m -20.980469,2.2832 c -0.455622,-0.01 -0.950211,0.1313 -1.449219,0.4649 -0.764629,0.2587 -1.522584,0.5385 -2.242187,0.9082 -1.898476,1.0361 -2.807779,1.9801 -3.261719,4.1484 -0.208297,1.2232 -0.565329,2.4292 -0.533203,3.6817 0.113318,1.4831 0.444122,2.9595 1.074218,4.3125 1.203867,1.9646 2.551728,2.9334 4.769532,3.6464 1.012082,0.2171 1.714074,0.4163 2.771484,0.4239 1.960708,0.013 3.845789,-0.7347 5.539063,-1.6621 h 0.002 c 2.553627,-1.9867 -0.255263,-5.6014 -2.810547,-3.6153 -0.246988,0.047 -0.492864,0.095 -0.740235,0.1407 -0.314324,0.088 -0.623838,0.1991 -0.943359,0.2656 -0.102289,0.023 0.393756,-0.1176 0.289063,-0.1289 -0.249952,-0.024 -0.497276,0.075 -0.748047,0.086 -0.680697,0.03 -0.984336,-0.044 -1.667969,-0.1387 -0.828238,-0.2274 -1.982332,-0.4827 -2.486328,-1.2753 -0.278642,-0.8436 -0.337377,-1.745 -0.419922,-2.625 0.04923,-0.8901 0.305768,-1.7573 0.488281,-2.629 0.03152,-0.082 0.206471,-0.5928 0.308594,-0.6816 0.1089,-0.096 0.291786,0.034 0.433594,0.01 0.311807,-0.051 0.668688,-0.2455 0.939453,-0.3672 0.574669,-0.2693 1.161389,-0.5105 1.755859,-0.7324 2.162369,-1.4455 0.906003,-4.2022 -1.068359,-4.2305 z"
       transform="scale(0.26458333)"
       id="path3111"
       inkscape:connector-curvature="0"
       sodipodi:nodetypes="cccccccccccccccccccccccccccccccccccccccccccccccccccccccccccccccccccccccccccccccccccccccccccccccccccccccccccccccccccccccccccccccccccccccccccccccccccccccccccccccccccccccccccccccccccccccccccccccccccccccccccccccccccccccccccccccccccccccccccccccccccccccccccccccccccccccccccccccccccccccccccccccccccccccccccccccccccccccccccccccccccccccccccccccccccccccccccccccccccccccccccccccccccccccccccccccccccccccccccccsccccccccccccccccccccccscccccccccccccccccccccccccccccccccccccccc" />
  </g>
</svg>
